<?xml version="1.0" encoding="UTF-8"?><svg id="Layer_1" xmlns="http://www.w3.org/2000/svg" viewBox="0 0 256 256"><defs><style>.cls-1{fill:#fff;}.cls-2{fill:#c41212;}</style></defs><rect class="cls-2" width="256" height="256" rx="32" ry="32"/><path class="cls-1" d="M45.68,100.12c0-17.85-.03-35.69.01-53.54.03-10.01,5.53-18.67,15.27-21.9,11.82-3.92,25.52,1.26,29.52,14.52.82,2.72.94,5.7,1,8.58.14,7.05.02,14.11.1,21.17.02,2.1.58,4.19.52,6.28-.09,2.86,2.99,4.88,5.86,3.76,2.66-1.04,5.27-2.3,7.73-3.74,5.34-3.11,11-5.29,17-6.78,7.29-1.82,14.66-1.81,21.92-.6,8.16,1.36,15.97,4.01,23.3,8.08,12.74,7.07,22.68,17.02,30.1,29.36,4.88,8.12,8.7,16.87,10.09,26.39.97,6.6,2.12,13.25,2.23,19.89.15,8.95-1.75,17.69-4.75,26.19-3.91,11.06-10,20.78-18.01,29.24-8.18,8.64-17.91,15.18-29.07,19.41-4.69,1.78-9.47,3.68-14.38,4.44-7.14,1.1-14.36,2.56-21.71,1.22-2.53-.46-5.14-.52-7.7-.83-7.38-.9-14.32-3.29-21.04-6.35-11.17-5.09-20.76-12.3-28.69-21.7-5.27-6.26-9.59-13.14-12.75-20.66-3-7.14-5.57-14.51-5.82-22.36-.38-12.06-.56-24.13-.72-36.2-.1-7.95-.02-15.9-.02-23.85ZM91.56,150.29c.32,19.91,15.99,36.11,36.42,36.01,21.02-.1,36.23-15.91,36.39-35.84.16-19.72-15-35.12-34.52-36.07-22.09-1.07-38.1,16.34-38.29,35.9Z"/></svg>