<svg class="bounce_logo" xmlns="http://www.w3.org/2000/svg" viewBox="0 0 1924.04 633.66">
    <path class="bounce" fill="#e01a1a" d="M935.29,250.96c0-32.78.03-65.55-.01-98.33-.02-16.95,2.8-33.39,8.24-49.43,4.34-12.8,10.4-24.77,17.99-35.91,10.07-14.78,22.41-27.45,36.86-38.06,9.46-6.95,19.58-12.79,30.37-17.29,22.49-9.38,45.9-13.43,70.34-11.46,15.8,1.28,30.92,5.01,45.47,11.1,7.52,3.15,14.68,7.07,21.59,11.44,10.88,6.89,20.72,15.04,29.45,24.44,9.17,9.87,17,20.76,23.38,32.67,5.69,10.62,10.17,21.7,13.39,33.29,4.18,15.04,5.93,30.38,5.9,45.98-.08,43.17-.02,86.34-.03,129.51,0,5.44-.36,10.81-1.75,16.15-4.92,18.91-23.92,37.42-50.51,34.7-21.54-2.2-36.29-18.21-40.67-35.04-1.27-4.86-1.56-9.77-1.56-14.74,0-23.34,0-46.69,0-70.03,0-22.07,0-44.13,0-66.19,0-7.9-1.12-15.61-4.05-23-9.04-22.84-31.84-37.73-56.26-36.29-17.87,1.05-32.05,9.15-42.41,23.75-7.24,10.21-10.94,21.68-11.07,34.15-.18,17.43-.41,34.86.03,52.28.81,31.66.27,63.31.34,94.96.04,16.47-.12,32.94-.04,49.41.05,11.08-.86,22.08-2.97,32.91-3.26,16.73-8.99,32.62-17.39,47.52-5.28,9.37-11.36,18.14-18.41,26.25-10.36,11.91-22.22,22.03-35.7,30.27-12.23,7.48-25.26,13.2-39.07,16.83-18.1,4.76-36.53,6.1-55.2,3.91-19.48-2.28-37.79-8.2-54.94-17.56-15.42-8.41-29-19.25-40.69-32.43-9.18-10.35-16.84-21.68-23.01-34.06-6.25-12.54-10.5-25.74-13.16-39.44-1.83-9.44-2.29-19.03-2.28-28.64.03-35.66.01-71.31.01-106.97,0-10.39,0-20.79,0-31.18,0-6.61.89-13.04,3.48-19.2,5.09-12.08,13.66-20.77,25.67-25.87,18.75-7.96,39.99-3.07,53.39,12.18,6.51,7.4,10.43,16.05,11.45,25.89.35,3.33.47,6.7.47,10.05.03,43.33,0,86.66.05,129.99,0,4.47.17,8.97.71,13.39,2.72,21.98,18.89,44.04,44.77,49.21,19.7,3.94,37.17-1.29,51.52-15.53,10.79-10.71,16.5-23.85,16.62-39.14.14-18.07.53-36.15-.1-54.2-.62-17.43-.1-34.85-.17-52.27ZM1688.3,286.84c24.15-.03,48.31-.02,72.46-.02,45.43,0,90.86,0,136.29-.02,2.55,0,5.13-.09,7.65-.47,6.51-.98,11.54-4.39,15.33-9.75,2.99-4.23,4.05-8.97,4.01-14.05-.11-13.65-1.77-27.11-5.2-40.32-5.44-20.96-14.46-40.23-27.26-57.75-11.82-16.18-25.98-29.92-42.57-41.1-24.91-16.79-52.38-26.42-82.35-28.91-23.79-1.98-46.87,1.09-69.38,9.08-17.51,6.22-33.45,15.18-48.02,26.62-17.95,14.1-32.53,31.14-43.8,50.97-13.85,24.37-21.11,50.63-22.13,78.61-.51,14.14,1.11,28.09,4.15,41.89,3.57,16.2,9.56,31.5,17.77,45.89,10.73,18.81,24.54,35.03,41.42,48.64,17.4,14.03,36.82,24.17,58.18,30.67,10.28,3.13,20.82,4.98,31.48,6.21,9.42,1.09,18.86,1.28,28.27.48,15.02-1.27,29.76-4.08,44.1-8.86,14.33-4.78,28.04-10.81,40.39-19.63,10.3-7.35,19.05-16.01,24.44-27.72,3.23-7.01,4.51-14.3,3.78-21.93-1.24-12.89-6.99-23.55-16.86-31.78-11.62-9.69-24.95-13.07-39.93-9.96-8.21,1.71-15.24,5.7-21.92,10.43-4.06,2.87-8.17,5.61-12.63,7.81-16.64,8.19-33.96,9.69-51.84,5.09-11.35-2.93-21.38-8.47-30.18-16.16-9.3-8.14-16.31-17.94-20.74-29.53-.45-1.17-1.18-2.32-.4-3.79,1.63-1.11,3.6-.62,5.46-.63ZM1689.6,229.29c-.59-.04-1.17-.28-2.07-.51.23-.93.27-1.74.62-2.36,4.84-8.4,11.13-15.57,18.69-21.61,7.69-6.14,16.26-10.76,25.72-13.51,12.18-3.53,24.51-4.24,36.95-1.32,21.31,5,37.57,16.97,49.1,35.47.56.89.89,1.93,1.52,3.33-3.86.6-122.99.98-130.53.5ZM534.46,93.91c-94.78-.29-170.47,76.28-170.93,169.2-.46,93.18,74.97,170.23,169.31,170.83,93.77.6,171.07-74.94,171.44-169.68.04-93.85-75.79-170.06-169.81-170.35ZM534.04,188.29c41.88.07,75.98,33.85,75.7,76.13-.27,41.4-34.35,74.8-76.19,74.6-42.48-.2-75.73-34.78-75.4-75.33-.07-41.2,33.54-75.47,75.89-75.4ZM1378.15,102.42c-16.99,5.55-32.71,13.66-47.16,24.23-21.13,15.46-37.94,34.65-50.3,57.73-10.86,20.28-17.16,41.89-19.32,64.81-1.94,20.64-.04,40.91,5.52,60.79,9.32,33.26,27.36,61.05,53.62,83.48,18.51,15.81,39.57,26.94,62.91,33.78,9.39,2.75,18.98,4.39,28.67,5.64,17.19,2.22,34.17.9,51.04-2.56,10.03-2.05,19.8-5.1,29.42-8.63,15.86-5.81,30.75-13.44,44.41-23.39,9.38-6.83,17.65-14.78,24.08-24.5,8.71-13.17,11.53-27.38,6.25-42.49-6.07-17.35-18.15-28.42-36.38-31.88-14.51-2.75-27.61,1.13-39.06,10.35-2.98,2.4-5.64,5.19-8.37,7.89-12.37,12.25-27.11,19.7-44.48,21.4-20.49,2.01-39.06-3.19-55.23-16.05-16.89-13.44-26.22-31.13-28.29-52.53-1.08-11.11.44-21.99,4.36-32.52,7.08-19.03,19.79-33.07,37.91-42.02,14.29-7.06,29.45-9.27,45.28-6.64,13.44,2.23,25.32,7.76,35.68,16.49,3.78,3.19,7.05,6.96,10.69,10.33,14.45,13.41,31.21,17.3,49.71,10.55,24.93-9.09,38.4-39.04,26.15-65-4.3-9.11-10.52-16.76-17.81-23.58-11.2-10.49-24.11-18.44-37.88-25.01-15.8-7.53-32.35-12.88-49.54-16.26-10.72-2.11-21.52-3.03-32.43-2.91-16.94.27-33.42,3.26-49.47,8.51ZM.11,208.88c.33,25.06.71,50.13,1.5,75.18.51,16.31,5.85,31.61,12.08,46.44,6.56,15.61,15.53,29.92,26.48,42.91,16.45,19.52,36.39,34.5,59.58,45.06,13.95,6.35,28.37,11.33,43.7,13.19,5.33.65,10.74.77,16,1.73,15.25,2.79,30.24-.25,45.08-2.53,10.19-1.56,20.12-5.53,29.87-9.21,23.18-8.77,43.39-22.36,60.38-40.31,16.63-17.57,29.28-37.77,37.4-60.74,6.23-17.64,10.19-35.79,9.88-54.39-.23-13.8-2.61-27.6-4.62-41.32-2.9-19.77-10.82-37.95-20.96-54.81-15.42-25.62-36.06-46.3-62.52-60.98-15.24-8.45-31.45-13.95-48.4-16.77-15.09-2.51-30.39-2.52-45.54,1.25-12.45,3.1-24.21,7.62-35.3,14.09-5.13,2.99-10.54,5.61-16.07,7.76-5.97,2.33-12.36-1.87-12.18-7.8.13-4.33-1.03-8.69-1.08-13.04-.17-14.66.09-29.32-.2-43.97-.12-5.96-.37-12.17-2.07-17.81C84.81,5.27,56.36-5.49,31.81,2.65,11.58,9.37.15,27.34.1,48.14c-.1,37.07-.03,74.14-.03,111.2,0,16.51-.18,33.03.04,49.54ZM174.88,189c40.56,1.96,72.05,33.96,71.71,74.91-.34,41.39-31.93,74.23-75.59,74.45-42.43.21-74.97-33.44-75.64-74.8.39-40.62,33.65-76.77,79.53-74.56Z"/>
    <path class="rideshare" fill="#e01a1a" d="M1415.34,555.06c-2.43-2.69-5.35-4.92-8.77-6.67-5.02-2.56-10.74-3.85-17.15-3.85-8.07,0-15.31,1.99-21.73,5.96-6.42,3.98-11.51,9.31-15.29,16-3.78,6.7-5.66,14.23-5.66,22.59s1.86,15.79,5.59,22.59c3.72,6.8,8.82,12.16,15.29,16.08,6.46,3.92,13.78,5.89,21.96,5.89,6.1,0,11.74-1.2,16.91-3.61,3.99-1.85,7.3-4.4,9.93-7.63M1416.43,622.42v9.35h19.24v-118.77h-20.33v42.05M1412.32,602.44c-2.02,3.87-4.81,6.9-8.38,9.1-3.57,2.2-7.63,3.29-12.18,3.29s-8.64-1.1-12.26-3.29c-3.62-2.2-6.44-5.23-8.46-9.1-2.02-3.87-3.03-8.31-3.03-13.34s1.01-9.31,3.03-13.18c2.02-3.87,4.84-6.9,8.46-9.1,3.62-2.19,7.71-3.29,12.26-3.29s8.61,1.1,12.18,3.29c3.57,2.2,6.36,5.23,8.38,9.1,2.02,3.87,3.02,8.26,3.02,13.18s-1.01,9.47-3.02,13.34ZM1467.45,595.06c.28,2.86.96,5.5,2.05,7.92,1.81,4.03,4.5,7.14,8.07,9.33,3.57,2.2,7.68,3.29,12.34,3.29s8.61-.99,11.87-2.98c3.26-1.98,5.82-4.65,7.68-8l16.45,8.16c-1.66,4.08-4.24,7.69-7.76,10.83-3.52,3.13-7.71,5.6-12.57,7.37-4.87,1.78-10.14,2.67-15.83,2.67-8.69,0-16.32-1.99-22.89-5.96-6.57-3.98-11.67-9.36-15.29-16.16s-4.42-14.33-4.42-22.59.85-16.18,4.58-22.83c3.73-6.64,8.74-11.9,15.05-15.77,6.31-3.87,13.45-5.81,21.42-5.81,6.62,0,12.44,1.1,17.46,3.29,5.02,2.2,9.29,5.23,12.8,9.1,3.52,3.87,6.21,8.29,8.07,13.26,1.86,4.97,2.79,10.33,2.79,16.08,0,1.57-.08,3.11-.23,4.63-.16,1.52-.44,2.9-.85,4.16h-60.79M1506.44,573.72c-1.4-3.77-3.67-6.75-6.83-8.94-3.16-2.2-6.96-3.29-11.41-3.29s-8.02,1.1-11.33,3.29c-3.31,2.19-5.82,5.33-7.53,9.41-.65,1.54-1.14,3.22-1.48,5.02h39.71c-.13-1.94-.5-3.77-1.14-5.49ZM1280.26,558.47v-12.05h-19.24v85.35h20.48v-47.54c0-6.49,1.76-11.51,5.28-15.06,3.52-3.56,8.17-5.34,13.97-5.34h7.29v-18.36h-4.96c-5.9,0-10.94,1.25-15.13,3.77-3.22,1.93-5.77,5.01-7.68,9.22M1316.96,631.78h20.48v-85.35h-20.48v85.35ZM1327.8,514.89h-1.3c-3.04,0-5.63,1.1-7.8,3.31-2.17,2.21-3.25,4.85-3.25,7.94v.88c0,3.09,1.08,5.73,3.25,7.93,2.17,2.21,4.77,3.31,7.8,3.31h1.3c3.04,0,5.63-1.1,7.8-3.31,2.17-2.2,3.25-4.85,3.25-7.93v-.88c0-3.09-1.08-5.73-3.25-7.94-2.17-2.2-4.77-3.31-7.8-3.31ZM1809.05,558.47v-12.05h-19.24v85.35h20.48v-47.54c0-6.49,1.76-11.51,5.28-15.06,3.52-3.56,8.17-5.34,13.97-5.34h7.29v-18.36h-4.96c-5.9,0-10.94,1.25-15.13,3.77-3.22,1.93-5.78,5.01-7.68,9.22M1860.84,595.06c.28,2.86.96,5.5,2.05,7.92,1.81,4.03,4.5,7.14,8.07,9.33,3.57,2.2,7.68,3.29,12.34,3.29s8.61-.99,11.87-2.98c3.26-1.98,5.82-4.65,7.68-8l16.45,8.16c-1.66,4.08-4.25,7.69-7.76,10.83-3.52,3.13-6.7,5.6-11.56,7.37-4.86,1.78-10.14,2.67-15.83,2.67-8.69,0-16.32-1.99-22.89-5.96-6.57-3.98-12.68-9.36-16.3-16.16-3.62-6.8-5.43-14.33-5.43-22.59s1.86-16.18,5.59-22.83c3.72-6.64,8.74-11.9,15.05-15.77,6.31-3.87,13.45-5.81,21.41-5.81,6.62,0,12.44,1.1,17.46,3.29,5.02,2.2,9.29,5.23,12.8,9.1,3.52,3.87,6.21,8.29,8.07,13.26,1.86,4.97,2.79,10.33,2.79,16.08,0,1.57-.08,3.11-.23,4.63-.16,1.52-.44,2.9-.85,4.16h-60.79M1899.82,573.72c-1.4-3.77-3.67-6.75-6.83-8.94-3.16-2.2-6.96-3.29-11.41-3.29s-8.02,1.1-11.33,3.29c-3.32,2.19-5.82,5.33-7.53,9.41-.65,1.54-1.14,3.22-1.48,5.02h39.71c-.13-1.94-.5-3.77-1.14-5.49ZM1756.83,622.78c-1.1,1.2-2.25,2.33-3.49,3.35-3.05,2.51-6.47,4.4-10.25,5.65-3.78,1.25-7.99,1.88-12.65,1.88-5.9,0-11.04-1-15.44-2.98-4.4-1.99-7.79-4.84-10.17-8.55-2.38-3.71-3.57-8.03-3.57-12.95s1.06-8.91,3.18-12.63c2.12-3.71,5.35-6.83,9.7-9.34,4.34-2.51,9.83-4.29,16.45-5.33l24.99-4.14v-2.76c0-3.66-1.4-6.72-4.19-9.18-2.79-2.45-6.52-3.69-11.17-3.69-4.34,0-8.2,1.2-11.56,3.61-3.36,2.41-5.82,5.49-7.37,9.26l-16.6-8.16c1.65-4.5,4.27-8.39,7.84-11.69,3.57-3.29,7.78-5.88,12.65-7.77,4.86-1.88,10.14-2.82,15.83-2.82,6.93,0,13.04,1.28,18.31,3.85,5.28,2.56,9.39,6.15,12.34,10.75,2.95,4.6,4.42,9.88,4.42,15.85v56.8h-19.24v-9M1734.48,597.26c-4.03.73-7.04,2.01-9,3.84-1.97,1.83-2.95,4.27-2.95,7.3s1.11,5.26,3.33,6.98c2.22,1.72,4.99,2.59,8.3,2.59,4.24,0,7.99-.91,11.25-2.75,3.26-1.83,5.77-4.37,7.53-7.61,1.76-3.24,2.64-6.75,2.64-10.52v-3.63l-21.11,3.79ZM1562.69,563.76c1.97-1.51,4.66-2.27,8.07-2.27,4.24,0,8.07,1.12,11.48,3.37,3.42,2.25,5.84,5.31,7.3,9.18l15.52-7.37c-2.59-7.01-6.93-12.45-13.04-16.32-6.11-3.87-13.14-5.81-21.1-5.81-6.11,0-11.51,1.1-16.22,3.29-4.71,2.2-8.38,5.26-11.02,9.18-2.64,3.92-3.96,8.5-3.96,13.73,0,5.86,1.84,10.96,5.51,15.3,3.67,4.34,9.02,7.51,16.06,9.49l13.81,3.92c1.86.52,3.52,1.18,4.97,1.96,1.45.79,2.61,1.73,3.49,2.82.88,1.1,1.32,2.49,1.32,4.16,0,2.72-1.09,4.92-3.26,6.59-2.17,1.67-5.07,2.51-8.69,2.51-4.76,0-9.08-1.36-12.96-4.08-3.88-2.72-6.91-6.48-9.08-11.3l-15.36,7.37c2.59,7.43,7.22,13.31,13.89,17.65,6.67,4.34,14.51,6.51,23.51,6.51,6.41,0,12-1.1,16.76-3.29,4.76-2.2,8.48-5.26,11.17-9.18,2.69-3.92,4.03-8.44,4.03-13.57,0-6.07-1.89-11.19-5.66-15.38-3.78-4.18-9.13-7.32-16.06-9.41l-13.5-4.08c-1.97-.63-3.7-1.31-5.2-2.04-1.5-.73-2.66-1.67-3.49-2.82-.83-1.15-1.24-2.45-1.24-3.92,0-2.61.98-4.68,2.95-6.2ZM1637.2,554.7c1.79-2.49,4.03-4.55,6.74-6.16,4.5-2.67,9.75-4,15.75-4s11.72,1.36,16.53,4.08c4.81,2.72,8.56,6.51,11.25,11.38,2.69,4.86,4.04,10.49,4.04,16.86v54.92h-20.33v-50.05c0-3.77-.72-7.01-2.17-9.73-1.45-2.72-3.44-4.81-5.98-6.28-2.54-1.46-5.51-2.2-8.92-2.2s-6.26.73-8.85,2.2c-2.59,1.47-4.6,3.56-6.05,6.28-1.45,2.72-2.17,5.96-2.17,9.73v50.05h-20.48l1.01-118.77h20.48l-.84,41.69Z"/>
</svg>