<svg width="88" height="132" viewBox="0 0 88 132" fill="none" xmlns="http://www.w3.org/2000/svg">
<path d="M86.957 114.572C86.937 108.902 86.927 101.432 86.927 92.1622C86.927 90.7222 86.867 89.2822 86.757 87.8922C86.677 86.9222 86.257 84.9322 85.507 81.9922C84.907 79.6522 84.277 77.7222 83.647 76.2422C80.337 68.5522 74.907 62.4722 67.497 58.1622C65.197 56.8222 62.807 55.8222 60.387 55.1822C60.137 55.1122 59.957 54.9122 59.927 54.6622C59.887 54.4122 60.007 54.1722 60.217 54.0322C60.927 53.5522 61.807 52.8922 62.897 52.0222C65.227 50.1622 66.977 47.6922 68.087 44.6922C70.107 39.1822 70.237 32.7722 68.407 27.9422C64.407 17.3922 53.707 11.9522 42.377 14.7122C34.297 16.6822 28.117 23.0622 26.637 30.9622C25.777 35.5522 26.197 40.0022 27.877 44.1922C29.537 48.3222 32.377 51.4922 36.587 53.8822C36.867 54.0422 37.017 54.3522 36.967 54.6722C36.917 54.9922 36.677 55.2322 36.357 55.3022C34.367 55.7022 32.487 56.5822 30.777 57.9222C30.427 58.2022 29.927 58.1822 29.587 57.8922C28.137 56.6122 27.057 55.6022 26.267 54.7922C22.727 51.1722 19.077 47.5122 15.117 43.6222C13.617 42.1422 12.467 41.4122 11.357 41.4122C10.347 41.4122 9.36703 42.0122 8.16703 43.2122C4.86703 46.5122 2.71703 48.7822 1.79703 49.9422C0.377029 51.7222 0.837029 53.5322 3.31703 55.9722C6.65703 59.2522 11.127 63.8022 16.607 69.4922C17.027 69.9222 17.047 70.5922 16.647 71.0522C12.737 75.6422 10.347 81.0922 9.52703 87.2622C9.46703 87.7022 9.40703 88.1422 9.34703 88.5722C9.13703 90.0522 8.93703 91.4422 8.93703 92.8022C8.93703 101.162 8.94703 108.622 8.98703 115.192C8.98703 115.362 9.00703 115.512 9.05703 115.662C9.48703 117.082 10.497 117.962 12.127 118.352C13.747 118.352 30.997 118.352 63.907 118.332C65.807 118.332 67.037 118.002 67.647 117.342C69.217 115.642 68.437 114.252 66.457 112.292C55.517 101.482 46.697 92.7422 39.987 86.0722C37.787 83.8822 36.357 82.4422 35.517 81.5222C34.307 80.2222 32.977 78.9522 31.687 77.7322C30.917 77.0022 30.167 76.2822 29.477 75.5922C21.157 67.3022 14.377 60.5622 9.15703 55.3522C8.12703 54.3122 7.29703 53.4422 6.63703 52.6722C6.37703 52.3622 6.37703 51.9222 6.61703 51.6022C7.06703 51.0422 7.62703 50.4822 8.20703 49.8822C8.88703 49.1822 9.59703 48.4622 10.257 47.6422C10.637 47.1822 11.037 46.9422 11.467 46.9322C11.827 46.9122 12.247 47.1122 12.587 47.4922C14.137 49.2022 15.527 50.6722 16.707 51.8622C53.267 88.5622 74.467 109.802 81.527 116.792C82.377 117.632 83.197 118.012 83.997 118.032C84.797 118.012 85.627 117.552 86.457 116.652C86.797 116.282 86.977 115.562 86.967 114.562L86.957 114.572ZM54.717 106.882L60.547 112.712C60.737 112.902 60.797 113.182 60.687 113.422C60.587 113.672 60.347 113.832 60.077 113.832H14.197C13.837 113.832 13.537 113.542 13.537 113.172V107.342C13.537 106.982 13.827 106.682 14.197 106.682H54.257C54.437 106.682 54.597 106.752 54.727 106.872L54.717 106.882ZM21.717 74.2322L48.877 101.392C49.077 101.592 49.127 101.882 49.017 102.132C48.907 102.382 48.667 102.542 48.397 102.542H30.147C29.927 102.542 29.707 102.452 29.547 102.292C29.387 102.132 29.307 101.912 29.307 101.692L29.337 91.0122C28.917 89.9322 28.247 89.3722 27.297 89.3122C26.647 89.2622 26.057 89.4622 25.607 89.8622C25.167 90.2522 24.907 90.8122 24.877 91.4422C24.777 93.2722 24.727 96.5922 24.717 101.592C24.717 102.102 24.297 102.522 23.787 102.522H14.437C13.957 102.522 13.567 102.142 13.557 101.662C13.427 97.2622 13.557 93.0322 13.917 89.0822C14.497 82.9122 16.747 77.9122 20.597 74.2222C20.907 73.9222 21.407 73.9322 21.707 74.2322H21.717ZM31.317 39.5422C30.767 37.0122 30.637 34.8022 30.937 32.9822C31.687 28.4422 33.967 24.7522 37.707 22.0122C41.897 18.9522 47.217 18.0022 52.717 19.3522C57.387 20.5022 61.567 23.9622 63.377 28.1722C65.627 33.3922 65.497 38.8622 62.987 44.4322C61.867 46.9222 60.067 48.9422 57.657 50.4522C54.707 52.2922 51.537 53.2222 48.197 53.2222C46.817 53.2222 45.397 53.0622 43.957 52.7422C42.687 52.4622 41.197 51.8022 39.517 50.7722C35.127 48.1122 32.367 44.3322 31.317 39.5322V39.5422ZM81.777 109.782C81.667 109.832 81.547 109.852 81.427 109.852C81.197 109.852 80.967 109.762 80.787 109.582L72.827 101.612C72.227 101.022 71.897 100.232 71.897 99.3922V90.7222C71.597 89.7122 70.887 88.9622 70.067 88.7822C69.347 88.6222 68.607 88.9122 67.997 89.6022C67.297 90.3922 67.347 91.8222 67.387 93.2022C67.397 93.6922 67.417 94.1722 67.407 94.6322V94.9622L67.057 95.1422C66.847 95.2322 66.607 95.1822 66.447 95.0222L33.487 62.0622C33.317 61.8922 33.257 61.6522 33.327 61.4222C33.397 61.1922 33.587 61.0222 33.827 60.9822C34.777 60.8322 35.687 60.5822 36.547 60.2422C38.947 59.2922 41.127 58.6422 43.047 58.3422C46.217 57.8322 49.517 57.7622 52.867 58.1222C59.847 58.8822 66.827 62.4022 72.517 68.0322C74.307 69.8022 76.177 72.6322 77.427 74.6922C80.697 80.0422 82.327 86.4222 82.287 93.6822C82.247 99.8322 82.267 104.962 82.327 108.932C82.327 109.302 82.117 109.632 81.777 109.772V109.782Z" fill="#2E2E2B"/>
</svg>
