<svg width="110" height="132" viewBox="0 0 110 132" fill="none" xmlns="http://www.w3.org/2000/svg">
<path d="M33.6298 23.53C33.8498 27.65 35.5898 32.08 38.7798 36.7C42.6598 42.29 46.9298 47.57 51.4698 52.41C52.7198 53.74 54.0098 54.39 55.4098 54.4C56.8298 54.4 58.1198 53.74 59.3598 52.44C63.9198 47.65 68.2299 42.4 72.1599 36.82C75.3899 32.23 77.1498 27.81 77.3998 23.69C77.8399 16.47 75.3198 10.31 69.9298 5.37C66.0098 1.77 61.3198 0.02 55.5998 0H55.4898C49.8198 0 45.1598 1.72 41.2298 5.27C35.7998 10.17 33.2498 16.32 33.6398 23.54L33.6298 23.53ZM44.1398 9.62C47.1598 6.78 51.2698 5.15 55.4198 5.15C59.5698 5.15 63.6798 6.78 66.6998 9.63C71.4098 14.07 73.1398 20.53 71.3398 26.9C70.6898 29.2 69.1898 31.96 66.8998 35.1C63.5398 39.7 60.0699 43.9 56.5798 47.6C56.3498 47.85 56.0598 48.05 55.7098 48.21L55.6098 48.25L55.4098 48.27H55.3098L55.1298 48.21C54.7698 48.05 54.4798 47.85 54.2498 47.6C50.7598 43.89 47.2898 39.69 43.9398 35.1C41.6498 31.96 40.1498 29.2 39.4998 26.9C37.6998 20.53 39.4298 14.07 44.1398 9.63V9.62ZM48.4598 17.64C45.7198 21.76 46.7698 27.29 50.7898 29.96C54.8098 32.63 60.3098 31.45 63.0498 27.33C65.7898 23.21 64.7398 17.68 60.7198 15.01C59.2598 14.04 57.6098 13.58 55.9698 13.58C53.0798 13.58 50.2098 15.01 48.4598 17.64ZM55.2198 18.54C56.2698 18.46 57.2798 18.77 58.0698 19.44C58.8698 20.1 59.3598 21.04 59.4398 22.06C59.6098 24.17 57.9898 26.03 55.8398 26.2C55.7298 26.2 55.6198 26.21 55.5098 26.21C54.5898 26.21 53.6998 25.89 52.9898 25.3C52.1898 24.64 51.6998 23.7 51.6198 22.68C51.4498 20.57 53.0698 18.71 55.2198 18.53V18.54ZM108.99 81.1C108.96 80.99 108.91 80.89 108.84 80.78C107.71 79.09 106.31 78.29 104.43 78.3C100.21 78.35 97.1098 78.39 95.1398 78.44C94.7298 78.44 94.4298 78.26 94.2598 77.93C94.0199 77.5 93.4698 76.2 92.6098 74.06C92.0798 72.75 91.2299 70.81 90.0698 68.3C87.7098 63.17 82.6698 59.74 77.5198 59.74H77.4498C62.9598 59.81 48.6199 59.79 34.8298 59.68C34.7398 59.68 34.6498 59.68 34.5698 59.68C32.1298 59.68 30.2798 59.9 29.0798 60.34C26.2298 61.37 23.9598 62.95 22.3298 65.04C21.3898 66.25 20.3298 68.26 19.1898 71.02C18.3298 73.07 17.4498 75.2 16.5598 77.4C16.3298 77.96 15.7998 78.32 15.2098 78.32L5.13985 78.34C3.31985 78.78 2.03985 79.89 1.24985 81.73C1.20985 81.82 1.17985 81.93 1.16985 82.04C0.899846 85.09 0.999846 86.27 1.13985 86.72C2.00985 89.6 3.83985 91.52 6.72985 92.58C7.05985 92.7 7.20985 92.91 7.26985 93.06C7.32985 93.21 7.37985 93.45 7.22985 93.76C7.09985 94.05 7.07985 94.14 7.07985 94.15C6.95985 103.31 6.97985 108.77 7.13985 110.84C7.22985 111.97 7.97985 113.61 9.38985 115.71L11.0298 117.41C11.2598 117.65 11.3498 117.99 11.2798 118.32C10.6898 120.54 9.29985 127.93 15.8498 130.33C15.9998 130.39 16.1598 130.42 16.3298 130.42C18.7698 130.47 21.5798 130.5 24.6698 130.5H24.6998C25.7598 130.5 26.7998 130.23 27.7898 129.68C30.3998 128.24 31.6498 126.18 31.5998 123.36C31.5798 122.35 31.6198 121.41 31.7198 120.57C31.7798 120.04 32.2298 119.65 32.7598 119.65H78.5098C78.7999 119.65 79.0599 119.76 79.2598 119.97C79.4598 120.17 79.5698 120.44 79.5598 120.73C79.4898 124.82 80.0998 127.92 83.3098 129.73C84.1098 130.18 85.0398 130.42 86.0798 130.43C89.4198 130.47 92.3699 130.46 94.8298 130.41C95.3498 130.4 96.0599 130.07 96.9398 129.45C100.73 126.74 100.49 122.52 99.7598 118.75C99.6599 118.21 99.8298 117.67 100.23 117.29C102.12 115.51 103.36 113.37 103.92 110.92C104.06 110.3 104.22 108.48 104.18 103.32C104.15 98.98 104.12 96.13 104.08 94.84C104.08 94.67 104 94.47 103.92 94.28C103.83 94.05 103.74 93.82 103.74 93.57C103.74 93.16 103.98 92.78 104.34 92.6C109.09 90.28 110.61 86.52 108.99 81.1ZM19.2898 84.34C19.7198 83.3 21.1598 79.75 23.6298 73.68C24.3698 71.86 25.2198 70.22 26.1498 68.8C27.9598 66.05 30.9398 64.66 34.9898 64.66C55.6599 64.63 69.2699 64.64 76.6098 64.7C78.7299 64.72 80.7498 65.45 82.6298 66.87C83.8998 67.84 85.1098 69.58 86.2098 72.04C87.7798 75.58 89.1998 78.98 90.4298 82.15C90.4898 82.31 90.7098 82.76 91.5298 84.06C91.6998 84.32 91.7099 84.66 91.5499 84.93C91.3998 85.2 91.1198 85.37 90.8098 85.37H19.9898C19.7398 85.37 19.5098 85.25 19.3598 85.04C19.2198 84.83 19.1898 84.57 19.2798 84.33L19.2898 84.34ZM9.79985 88.15C9.62985 88.15 9.44985 88.13 9.27985 88.09C8.09985 87.83 6.70985 87.05 6.26985 85.91C6.07985 85.41 5.98985 84.64 6.63985 83.73C6.87985 83.4 7.26985 83.19 7.67985 83.19H12.7098C13.0898 83.19 13.4198 83.4 13.5898 83.73C13.7598 84.07 13.7298 84.47 13.4998 84.77L11.7498 87.14C11.2798 87.77 10.5498 88.13 9.78985 88.13L9.79985 88.15ZM24.0098 125.49L18.2798 125.51H18.2698C16.6498 125.51 15.3298 124.24 15.3198 122.67V120.81C15.3198 120.18 15.8198 119.67 16.4398 119.67L25.7998 119.64C26.4298 119.64 26.9398 120.15 26.9398 120.78V122.64C26.9498 124.2 25.6298 125.48 24.0098 125.49ZM95.1698 122.62C95.1698 123.38 94.8998 124.1 94.4198 124.65C93.9198 125.21 93.2598 125.52 92.5499 125.52L86.6998 125.5C85.9898 125.5 85.3298 125.19 84.8298 124.62C84.3498 124.07 84.0898 123.35 84.0898 122.59V120.64C84.0898 120.08 84.5598 119.62 85.1298 119.62L94.1599 119.65C94.7198 119.65 95.1798 120.11 95.1798 120.68V122.63L95.1698 122.62ZM99.2299 107.97C99.2299 109.76 98.5298 111.44 97.2598 112.7C95.9998 113.96 94.3198 114.65 92.5398 114.65H92.5298L18.3298 114.52C16.5398 114.52 14.8598 113.82 13.5998 112.55C12.3398 111.28 11.6498 109.6 11.6498 107.81L11.6698 96.66C11.6698 94.87 12.3698 93.19 13.6398 91.93C14.8998 90.67 16.5798 89.98 18.3598 89.98H18.3698L92.5698 90.11C94.3598 90.11 96.0398 90.81 97.2999 92.08C98.5599 93.35 99.2598 95.03 99.2498 96.82L99.2299 107.97ZM101.8 88.47C101.71 88.49 101.62 88.51 101.52 88.51C101.3 88.51 101.09 88.44 100.9 88.31L98.8598 86.8C98.6599 86.65 98.5198 86.46 98.4298 86.25C98.1698 85.62 97.8898 85.17 97.5698 84.86C97.2898 84.59 97.2098 84.19 97.3498 83.83C97.4898 83.47 97.8399 83.24 98.2198 83.24H103.47C103.78 83.24 104.08 83.36 104.3 83.59C104.52 83.81 104.63 84.1 104.63 84.42C104.6 86.6 103.64 87.96 101.79 88.47H101.8ZM35.4498 107.46C34.9798 107.94 34.3699 108.11 33.6498 107.94L32.0598 106.71C32.0598 106.71 31.9798 106.64 31.9498 106.59L30.3998 104.07C30.3598 104.01 30.3198 103.95 30.2498 103.89C28.5598 102.21 26.2998 102.07 24.0398 102.07C23.7998 102.07 23.5598 102.07 23.3198 102.07H22.4498C19.0898 102.06 18.6598 100.47 18.6298 99.27C18.6298 99.14 18.6498 99.01 18.6898 98.88C19.0798 97.69 19.9798 97.13 21.5298 97.12C25.0398 97.09 27.6798 97.2 29.3898 97.45C33.2598 98 35.4498 101.61 36.1498 104.53C36.3998 105.56 36.0998 106.8 35.4298 107.47L35.4498 107.46ZM83.1798 102.3C81.4198 102.38 80.7098 103.66 80.0898 104.79C79.8398 105.24 79.5999 105.67 79.2999 106.03C78.6898 106.77 77.6299 107.57 75.4398 106.1C75.1098 105.88 74.9098 105.52 74.8198 105.03C74.5898 103.7 75.3099 101.87 75.9099 101.07C77.8998 98.41 80.6598 97.12 84.3398 97.12C84.3998 97.12 84.4598 97.12 84.5298 97.12C85.0698 97.12 85.5698 97.12 86.0398 97.11C88.4799 97.07 89.8298 97.04 91.0398 99.06C91.0899 99.14 91.1199 99.24 91.1398 99.35C91.2898 100.61 90.7898 101.41 89.5598 101.88C89.4998 101.91 89.4298 101.92 89.3498 101.93C88.4698 102.02 86.3898 102.15 83.1798 102.31V102.3ZM68.1398 103.89V104.06C68.1398 105.52 66.9598 106.7 65.4998 106.7H46.7998C45.3398 106.7 44.1598 105.52 44.1598 104.06V103.89C44.1598 102.43 45.3398 101.25 46.7998 101.25H65.4998C66.9598 101.25 68.1398 102.43 68.1398 103.89Z" fill="#2E2E2B"/>
</svg>
