<?xml version="1.0" encoding="UTF-8"?><svg id="Layer_2" xmlns="http://www.w3.org/2000/svg" viewBox="0 0 108.61 130.49"><defs><style>.cls-1{fill:#2e2e2b;}</style></defs><g id="Layer_1-2"><path class="cls-1" d="M32.63,23.53c.22,4.12,1.96,8.55,5.15,13.17,3.88,5.59,8.15,10.87,12.69,15.71,1.25,1.33,2.54,1.98,3.94,1.99,1.42,0,2.71-.66,3.95-1.96,4.56-4.79,8.87-10.04,12.8-15.62,3.23-4.59,4.99-9.01,5.24-13.13.44-7.22-2.08-13.38-7.47-18.32C65.01,1.77,60.32.02,54.6,0h-.11c-5.67,0-10.33,1.72-14.26,5.27-5.43,4.9-7.98,11.05-7.59,18.27ZM43.14,9.62c3.02-2.84,7.13-4.47,11.28-4.47s8.26,1.63,11.28,4.48c4.71,4.44,6.44,10.9,4.64,17.27-.65,2.3-2.15,5.06-4.44,8.2-3.36,4.6-6.83,8.8-10.32,12.5-.23.25-.52.45-.87.61l-.1.04-.2.02h-.1l-.18-.06c-.36-.16-.65-.36-.88-.61-3.49-3.71-6.96-7.91-10.31-12.5-2.29-3.14-3.79-5.9-4.44-8.2-1.8-6.37-.07-12.83,4.64-17.27ZM47.46,17.64c-2.74,4.12-1.69,9.65,2.33,12.32,4.02,2.67,9.52,1.49,12.26-2.63,2.74-4.12,1.69-9.65-2.33-12.32-1.46-.97-3.11-1.43-4.75-1.43-2.89,0-5.76,1.43-7.51,4.06ZM54.22,18.54c1.05-.08,2.06.23,2.85.9.8.66,1.29,1.6,1.37,2.62.17,2.11-1.45,3.97-3.6,4.14-.11,0-.22.01-.33.01-.92,0-1.81-.32-2.52-.91-.8-.66-1.29-1.6-1.37-2.62-.17-2.11,1.45-3.97,3.6-4.15ZM107.99,81.1c-.03-.11-.08-.21-.15-.32-1.13-1.69-2.53-2.49-4.41-2.48-4.22.05-7.32.09-9.29.14-.41,0-.71-.18-.88-.51-.24-.43-.79-1.73-1.65-3.87-.53-1.31-1.38-3.25-2.54-5.76-2.36-5.13-7.4-8.56-12.55-8.56h-.07c-14.49.07-28.83.05-42.62-.06-.09,0-.18,0-.26,0-2.44,0-4.29.22-5.49.66-2.85,1.03-5.12,2.61-6.75,4.7-.94,1.21-2,3.22-3.14,5.98-.86,2.05-1.74,4.18-2.63,6.38-.23.56-.76.92-1.35.92l-10.07.02c-1.82.44-3.1,1.55-3.89,3.39-.04.09-.07.2-.08.31-.27,3.05-.17,4.23-.03,4.68.87,2.88,2.7,4.8,5.59,5.86.33.12.48.33.54.48.06.15.11.39-.04.7-.13.29-.15.38-.15.39-.12,9.16-.1,14.62.06,16.69.09,1.13.84,2.77,2.25,4.87l1.64,1.7c.23.24.32.58.25.91-.59,2.22-1.98,9.61,4.57,12.01.15.06.31.09.48.09,2.44.05,5.25.08,8.34.08h.03c1.06,0,2.1-.27,3.09-.82,2.61-1.44,3.86-3.5,3.81-6.32-.02-1.01.02-1.95.12-2.79.06-.53.51-.92,1.04-.92h45.75c.29,0,.55.11.75.32.2.2.31.47.3.76-.07,4.09.54,7.19,3.75,9,.8.45,1.73.69,2.77.7,3.34.04,6.29.03,8.75-.02.52-.01,1.23-.34,2.11-.96,3.79-2.71,3.55-6.93,2.82-10.7-.1-.54.07-1.08.47-1.46,1.89-1.78,3.13-3.92,3.69-6.37.14-.62.3-2.44.26-7.6-.03-4.34-.06-7.19-.1-8.48,0-.17-.08-.37-.16-.56-.09-.23-.18-.46-.18-.71,0-.41.24-.79.6-.97,4.75-2.32,6.27-6.08,4.65-11.5ZM18.29,84.34h0c.43-1.04,1.87-4.59,4.34-10.66.74-1.82,1.59-3.46,2.52-4.88,1.81-2.75,4.79-4.14,8.84-4.14,20.67-.03,34.28-.02,41.62.04,2.12.02,4.14.75,6.02,2.17,1.27.97,2.48,2.71,3.58,5.17,1.57,3.54,2.99,6.94,4.22,10.11.06.16.28.61,1.1,1.91.17.26.18.6.02.87-.15.27-.43.44-.74.44H18.99c-.25,0-.48-.12-.63-.33-.14-.21-.17-.47-.08-.71ZM8.8,88.15c-.17,0-.35-.02-.52-.06-1.18-.26-2.57-1.04-3.01-2.18-.19-.5-.28-1.27.37-2.18.24-.33.63-.54,1.04-.54h5.03c.38,0,.71.21.88.54.17.34.14.74-.09,1.04l-1.75,2.37c-.47.63-1.2.99-1.96.99ZM23.01,125.49l-5.73.02h-.01c-1.62,0-2.94-1.27-2.95-2.84v-1.86c0-.63.5-1.14,1.12-1.14l9.36-.03c.63,0,1.14.51,1.14,1.14v1.86c.01,1.56-1.31,2.84-2.93,2.85ZM94.17,122.62c0,.76-.27,1.48-.75,2.03-.5.56-1.16.87-1.87.87h0l-5.85-.02c-.71,0-1.37-.31-1.87-.88-.48-.55-.74-1.27-.74-2.03v-1.95c0-.56.47-1.02,1.04-1.02l9.03.03c.56,0,1.02.46,1.02,1.03v1.95ZM98.23,107.97c0,1.79-.7,3.47-1.97,4.73-1.26,1.26-2.94,1.95-4.72,1.95h-.01l-74.2-.13c-1.79,0-3.47-.7-4.73-1.97s-1.95-2.95-1.95-4.74l.02-11.15c0-1.79.7-3.47,1.97-4.73,1.26-1.26,2.94-1.95,4.72-1.95h.01l74.2.13c1.79,0,3.47.7,4.73,1.97s1.96,2.95,1.95,4.74l-.02,11.15ZM100.8,88.47c-.09.02-.18.04-.28.04-.22,0-.43-.07-.62-.2l-2.04-1.51c-.2-.15-.34-.34-.43-.55-.26-.63-.54-1.08-.86-1.39h0c-.28-.27-.36-.67-.22-1.03.14-.36.49-.59.87-.59h5.25c.31,0,.61.12.83.35.22.22.33.51.33.83-.03,2.18-.99,3.54-2.84,4.05ZM34.45,107.46c-.47.48-1.08.65-1.8.48l-1.59-1.23s-.08-.07-.11-.12l-1.55-2.52c-.04-.06-.08-.12-.15-.18-1.69-1.68-3.95-1.82-6.21-1.82-.24,0-.48,0-.72,0h-.87c-3.36-.01-3.79-1.6-3.82-2.8,0-.13.02-.26.06-.39h0c.39-1.19,1.29-1.75,2.84-1.76,3.51-.03,6.15.08,7.86.33,3.87.55,6.06,4.16,6.76,7.08.25,1.03-.05,2.27-.72,2.94ZM82.18,102.3c-1.76.08-2.47,1.36-3.09,2.49-.25.45-.49.88-.79,1.24-.61.74-1.67,1.54-3.86.07-.33-.22-.53-.58-.62-1.07-.23-1.33.49-3.16,1.09-3.96,1.99-2.66,4.75-3.95,8.43-3.95.06,0,.12,0,.19,0,.54,0,1.04,0,1.51-.01,2.44-.04,3.79-.07,5,1.95.05.08.08.18.1.29.15,1.26-.35,2.06-1.58,2.53-.06.03-.13.04-.21.05-.88.09-2.96.22-6.17.38ZM67.14,103.89v.17c0,1.46-1.18,2.64-2.64,2.64h-18.7c-1.46,0-2.64-1.18-2.64-2.64v-.17c0-1.46,1.18-2.64,2.64-2.64h18.7c1.46,0,2.64,1.18,2.64,2.64Z"/></g></svg>