<?xml version="1.0" encoding="UTF-8"?><svg id="Layer_2" xmlns="http://www.w3.org/2000/svg" viewBox="0 0 85.97 104.37"><defs><style>.cls-1{fill:#2e2e2b;}</style></defs><g id="Layer_1-2"><path class="cls-1" d="M85.97,100.57c-.02-5.67-.03-13.14-.03-22.41,0-1.44-.06-2.88-.17-4.27-.08-.97-.5-2.96-1.25-5.9-.6-2.34-1.23-4.27-1.86-5.75-3.31-7.69-8.74-13.77-16.15-18.08-2.3-1.34-4.69-2.34-7.11-2.98-.25-.07-.43-.27-.46-.52-.04-.25.08-.49.29-.63.71-.48,1.59-1.14,2.68-2.01,2.33-1.86,4.08-4.33,5.19-7.33,2.02-5.51,2.15-11.92.32-16.75C63.42,3.39,52.72-2.05,41.39.71c-8.08,1.97-14.26,8.35-15.74,16.25-.86,4.59-.44,9.04,1.24,13.23,1.66,4.13,4.5,7.3,8.71,9.69.28.16.43.47.38.79-.05.32-.29.56-.61.63-1.99.4-3.87,1.28-5.58,2.62-.35.28-.85.26-1.19-.03-1.45-1.28-2.53-2.29-3.32-3.1-3.54-3.62-7.19-7.28-11.15-11.17-1.5-1.48-2.65-2.21-3.76-2.21-1.01,0-1.99.6-3.19,1.8-3.3,3.3-5.45,5.57-6.37,6.73-1.42,1.78-.96,3.59,1.52,6.03,3.34,3.28,7.81,7.83,13.29,13.52.42.43.44,1.1.04,1.56-3.91,4.59-6.3,10.04-7.12,16.21-.06.44-.12.88-.18,1.31-.21,1.48-.41,2.87-.41,4.23,0,8.36.01,15.82.05,22.39,0,.17.02.32.07.47.43,1.42,1.44,2.3,3.07,2.69,1.62,0,18.87,0,51.78-.02,1.9,0,3.13-.33,3.74-.99,1.57-1.7.79-3.09-1.19-5.05-10.94-10.81-19.76-19.55-26.47-26.22-2.2-2.19-3.63-3.63-4.47-4.55-1.21-1.3-2.54-2.57-3.83-3.79-.77-.73-1.52-1.45-2.21-2.14-8.32-8.29-15.1-15.03-20.32-20.24-1.03-1.04-1.86-1.91-2.52-2.68-.26-.31-.26-.75-.02-1.07.45-.56,1.01-1.12,1.59-1.72.68-.7,1.39-1.42,2.05-2.24.38-.46.78-.7,1.21-.71.36-.02.78.18,1.12.56,1.55,1.71,2.94,3.18,4.12,4.37,36.56,36.7,57.76,57.94,64.82,64.93.85.84,1.67,1.22,2.47,1.24.8-.02,1.63-.48,2.46-1.38.34-.37.52-1.09.51-2.09ZM53.73,92.88l5.83,5.83c.19.19.25.47.14.71-.1.25-.34.41-.61.41H13.21c-.36,0-.66-.29-.66-.66v-5.83c0-.36.29-.66.66-.66h40.06c.18,0,.34.07.47.19ZM20.73,60.23l27.16,27.16c.2.2.25.49.14.74-.11.25-.35.41-.62.41h-18.25c-.22,0-.44-.09-.6-.25-.16-.16-.24-.38-.24-.6l.03-10.68c-.42-1.08-1.09-1.64-2.04-1.7-.65-.05-1.24.15-1.69.55-.44.39-.7.95-.73,1.58-.1,1.83-.15,5.15-.16,10.15,0,.51-.42.93-.93.93h-9.35c-.48,0-.87-.38-.88-.86-.13-4.4,0-8.63.36-12.58.58-6.17,2.83-11.17,6.68-14.86.31-.3.81-.29,1.11.01ZM30.33,25.54c-.55-2.53-.68-4.74-.38-6.56.75-4.54,3.03-8.23,6.77-10.97,4.19-3.06,9.51-4.01,15.01-2.66,4.67,1.15,8.85,4.61,10.66,8.82,2.25,5.22,2.12,10.69-.39,16.26-1.12,2.49-2.92,4.51-5.33,6.02-2.95,1.84-6.12,2.77-9.46,2.77-1.38,0-2.8-.16-4.24-.48-1.27-.28-2.76-.94-4.44-1.97-4.39-2.66-7.15-6.44-8.2-11.24ZM80.79,95.78c-.11.05-.23.07-.35.07-.23,0-.46-.09-.64-.27l-7.96-7.97c-.6-.59-.93-1.38-.93-2.22v-8.67c-.3-1.01-1.01-1.76-1.83-1.94-.72-.16-1.46.13-2.07.82-.7.79-.65,2.22-.61,3.6.01.49.03.97.02,1.43v.33s-.35.18-.35.18c-.21.09-.45.04-.61-.12l-32.96-32.96c-.17-.17-.23-.41-.16-.64.07-.23.26-.4.5-.44.95-.15,1.86-.4,2.72-.74,2.4-.95,4.58-1.6,6.5-1.9,3.17-.51,6.47-.58,9.82-.22,6.98.76,13.96,4.28,19.65,9.91,1.79,1.77,3.66,4.6,4.91,6.66,3.27,5.35,4.9,11.73,4.86,18.99-.04,6.15-.02,11.28.04,15.25,0,.37-.21.7-.55.84Z"/></g></svg>